<svg width="120" height="120" viewBox="0 0 120 120" fill="none" xmlns="http://www.w3.org/2000/svg">
<path fill-rule="evenodd" clip-rule="evenodd" d="M101.682 100.331C111.784 89.8934 118 75.6727 118 60C118 27.9675 92.0325 2 60 2C27.9675 2 2 27.9675 2 60C2 75.6432 8.19293 89.8399 18.2608 100.272C18.3899 99.2935 18.5814 98.0838 18.8642 96.7053C19.6275 92.9845 21.0607 88.0106 23.7447 83.0259C29.1404 73.0055 39.5754 63 59.5002 63C79.421 63 90.1003 73.0004 95.746 83.0087C98.5559 87.99 100.116 92.9614 100.974 96.6814C101.302 98.0991 101.528 99.3383 101.682 100.331ZM101.992 102.856C113.105 91.9662 120 76.7883 120 60C120 26.8629 93.1371 0 60 0C26.8629 0 0 26.8629 0 60C0 76.7873 6.89425 91.9644 18.0059 102.854C18.0043 102.884 18.0031 102.908 18.0023 102.925L18.0012 102.951L18.0009 102.958L18.0008 102.96C18.0008 102.961 18.0008 102.961 18.1198 102.966C28.9318 113.506 43.7075 120 60 120C76.3049 120 91.0909 113.496 101.905 102.941C101.998 102.935 101.998 102.935 101.998 102.935L101.998 102.932L101.997 102.925L101.995 102.9C101.995 102.888 101.994 102.874 101.992 102.856ZM99.9056 102.09C99.8836 101.904 99.8572 101.693 99.8255 101.459C99.6845 100.418 99.4397 98.9253 99.0256 97.1311C98.1966 93.5386 96.6941 88.76 94.0041 83.9913C88.6498 74.4996 78.5793 65 59.5002 65C40.4253 65 30.6102 74.4945 25.5057 83.9741C22.9397 88.7394 21.5602 93.5155 20.8234 97.1072C20.4555 98.9009 20.249 100.393 20.1347 101.433C20.1088 101.668 20.0877 101.88 20.0705 102.067C30.47 111.941 44.5275 118 60 118C75.4607 118 89.5085 111.951 99.9056 102.09ZM60 53C68.2843 53 75 46.2843 75 38C75 29.7157 68.2843 23 60 23C51.7157 23 45 29.7157 45 38C45 46.2843 51.7157 53 60 53ZM60 55C69.3888 55 77 47.3888 77 38C77 28.6112 69.3888 21 60 21C50.6112 21 43 28.6112 43 38C43 47.3888 50.6112 55 60 55Z" fill="black"/>
</svg>
