<svg width="100" height="178" viewBox="0 0 100 178" fill="none" xmlns="http://www.w3.org/2000/svg">
<path fill-rule="evenodd" clip-rule="evenodd" d="M7.04226 10C14.8475 10 25.0102 11.8121 34.2695 14.9319C43.732 18.1202 51.2101 22.3274 54.5701 26.4628C57.5987 30.1902 57.2111 33.4894 55.6121 35.6706C53.8541 38.0687 49.6764 40.3625 42.9002 39.4786L42.8868 39.5812C37.2024 35.6204 31.2089 33.0532 25.8727 31.3887C20.7196 29.7813 16.0737 28.9798 12.7072 28.5782C11.0198 28.3769 9.64231 28.2747 8.66907 28.2228C8.18213 28.1968 7.79539 28.1833 7.52059 28.1763C7.38316 28.1729 7.27362 28.171 7.19344 28.17C7.15334 28.1695 7.12058 28.1692 7.09532 28.1691L7.0631 28.1689L7.05125 28.1689L7.0464 28.1689C7.04427 28.1689 7.04226 28.1689 7.04226 33.1689C7.04226 38.1689 7.04049 38.1689 7.03884 38.1689L7.06977 38.1692C7.10774 38.1697 7.174 38.1708 7.26713 38.1731C7.45344 38.1779 7.74686 38.1878 8.13608 38.2086C8.91514 38.2501 10.074 38.335 11.5226 38.5078C14.4281 38.8544 18.4529 39.5494 22.8949 40.935C31.8263 43.721 42.026 49.1565 48.5629 59.74C54.4936 69.3421 56.02 75.5368 56.7285 80.8383C56.8951 82.0851 57.0192 83.3947 57.1492 84.7673L57.1492 84.7674L57.1492 84.7676C57.5603 89.1082 58.0311 94.0788 60.097 99.6861C65.8869 115.402 79.3145 121.972 92.9577 121.972V111.972C82.6573 111.972 73.5496 107.274 69.4804 96.2291C67.8994 91.9376 67.5908 88.7031 67.2116 84.7271V84.727C67.0606 83.1445 66.8984 81.4445 66.6404 79.5136C65.7489 72.8432 63.7541 65.3055 57.0709 54.4851C55.7851 52.4034 54.3917 50.4873 52.9165 48.7238C57.4096 47.4759 61.1538 45.025 63.6771 41.5829C68.2731 35.3134 67.8855 26.9928 62.3313 20.1569C57.1085 13.7289 47.3332 8.78121 37.4625 5.45539C27.3886 2.06112 16.1384 0 7.04226 0V10ZM92.8222 167.838C85.0169 167.838 74.8543 166.026 65.595 162.906C56.1325 159.718 48.6544 155.511 45.2944 151.375C42.2658 147.648 42.6534 144.349 44.2524 142.167C45.7831 140.079 49.1484 138.07 54.4663 138.169C60.9023 143.27 67.9545 146.404 74.1273 148.329C79.2803 149.937 83.9263 150.738 87.2928 151.14C88.9802 151.341 90.3577 151.443 91.3309 151.495C91.8178 151.521 92.2046 151.535 92.4794 151.542C92.5121 151.542 92.5432 151.543 92.5728 151.544C92.6091 151.545 92.6431 151.545 92.6746 151.546C92.7249 151.547 92.7689 151.548 92.8065 151.548L92.8679 151.549L92.9046 151.549L92.9369 151.549L92.9487 151.549H92.9536C92.9557 151.549 92.9577 151.549 92.9577 146.549C92.9577 141.549 92.9595 141.549 92.9611 141.549L92.9302 141.549C92.8922 141.548 92.826 141.547 92.7328 141.545C92.5465 141.54 92.2531 141.53 91.8639 141.509C91.0848 141.468 89.926 141.383 88.4774 141.21C85.5718 140.864 81.547 140.169 77.105 138.783C68.1737 135.997 57.974 130.562 51.4371 119.978C45.5063 110.376 43.98 104.181 43.2715 98.8797C43.1048 97.6329 42.9808 96.3233 42.8508 94.9506L42.8508 94.9505L42.8508 94.9504L42.8507 94.9503C42.4396 90.6098 41.9688 85.6392 39.903 80.0319C34.113 64.3163 20.6855 57.7463 7.04224 57.7463V67.7463C17.3427 67.7463 26.4503 72.4439 30.5195 83.4889C32.1006 87.7804 32.4091 91.0149 32.7884 94.991C32.9394 96.5735 33.1015 98.2735 33.3596 100.204C34.2511 106.875 36.2459 114.412 42.9291 125.233C43.8487 126.722 44.8234 128.126 45.8437 129.45C41.8411 130.776 38.501 133.099 36.1874 136.255C31.5914 142.525 31.979 150.845 37.5332 157.681C42.7559 164.109 52.5313 169.057 62.402 172.383C72.4759 175.777 83.7261 177.838 92.8222 177.838V167.838ZM100 88.0982C100 91.9875 96.8471 95.1404 92.9578 95.1404C89.0684 95.1404 85.9155 91.9875 85.9155 88.0982C85.9155 84.2088 89.0684 81.0559 92.9578 81.0559C96.8471 81.0559 100 84.2088 100 88.0982ZM7.04225 96.549C10.9316 96.549 14.0845 93.3961 14.0845 89.5068C14.0845 85.6174 10.9316 82.4645 7.04225 82.4645C3.15292 82.4645 0 85.6174 0 89.5068C0 93.3961 3.15292 96.549 7.04225 96.549Z" fill="white"/>
</svg>
