<svg id="Layer_2" data-name="Layer 2" xmlns="http://www.w3.org/2000/svg" viewBox="0 0 809.213 468.086" style="width: 100%; height: 100%;">
  <g id="Layer_2-2" data-name="Layer 2">
    <g>
      <g>
        <g>
          <path d="m512.859,450.876l-86.399-.058c-7.237-.005-11.624-7.991-7.746-14.102l43.246-68.138c3.609-5.687,11.909-5.681,15.511.01l43.154,68.196c3.87,6.116-.528,14.096-7.765,14.091Z" fill="#f4f4f4"></path>
          <path d="m462.972,433.139c.003-3.966,2.866-7.022,6.726-7.02,3.86.003,6.72,3.062,6.717,7.029-.003,3.94-2.866,6.996-6.726,6.993-3.86-.002-6.72-3.062-6.717-7.002Zm1.538-34.596l-.367-10.063,11.161.007-.382,10.063-1.566,23.163-7.31-.005-1.536-23.165Z" fill="#fff"></path>
        </g>
        <g>
          <path d="m778.038,437.715l-79.238-.053c-6.638-.004-10.661-7.329-7.104-12.933l39.661-62.49c3.31-5.215,10.922-5.21,14.225.01l39.577,62.543c3.549,5.609-.484,12.928-7.121,12.923Z" fill="#f4f4f4"></path>
          <path d="m732.286,421.448c.003-3.638,2.629-6.441,6.169-6.438s6.163,2.809,6.16,6.447c-.002,3.614-2.628,6.416-6.168,6.414s-6.163-2.808-6.161-6.422Zm1.411-31.731l-.337-9.23,10.236.007-.349,9.23-1.438,21.245-6.705-.005-1.408-21.247Z" fill="#fff"></path>
        </g>
        <g>
          <path d="m458.665,189.621l-93.114-.063c-7.8-.005-12.528-8.612-8.348-15.198l46.607-73.434c3.89-6.129,12.835-6.123,16.716.011l46.508,73.496c4.171,6.591-.569,15.192-8.368,15.187Z" fill="#f4f4f4"></path>
          <path d="m404.9,170.504c.003-4.275,3.089-7.568,7.249-7.565s7.241,3.3,7.238,7.575c-.003,4.247-3.089,7.54-7.249,7.537-4.159-.003-7.241-3.3-7.238-7.546Zm1.658-37.286l-.396-10.846,12.029.008-.411,10.846-1.688,24.964-7.878-.005-1.655-24.966Z" fill="#fff"></path>
        </g>
        <g>
          <path d="m681.094,267.168l-87.101-.059c-7.296-.005-11.719-8.056-7.809-14.216l43.597-68.691c3.638-5.733,12.006-5.727,15.637.011l43.504,68.75c3.901,6.166-.532,14.211-7.828,14.206Z" fill="#f4f4f4"></path>
          <path d="m630.804,249.287c.003-3.999,2.89-7.08,6.781-7.077,3.892.002,6.774,3.087,6.771,7.086-.002,3.972-2.889,7.053-6.78,7.051-3.892-.003-6.774-3.088-6.772-7.06Zm1.552-34.881l-.371-10.147,11.253.008-.384,10.146-1.58,23.354-7.37-.005-1.548-23.356Z" fill="#fff"></path>
        </g>
        <g>
          <g>
            <g>
              <path d="m209.088,125.294s-2.455,38.078-9.65,49.386c-20.713,32.554-27.031,58.193-6.892,77.699,20.139,19.507,150.011,21.278,160.363-22.934,8.715-37.222-9.014-41.44-12.983-72.275-1.796-13.952-6.841-43.223-6.841-43.223" fill="#0a0a0a"></path>
              <path id="sk" d="m319.847,222.379c-.224-.029-2.712,41.253-50.671,37.654-33.201-2.487-45.039-37.712-45.8-37.712,3.58-.761,9.608-1.867,11.197-2.716,5.228-2.809,11.697-5.732,13.382-15.885.971-5.852-.676-35.788-.169-41.708l50.964,11.375c-.712,12.504-5.696,41.492,11.773,46.622,2.907.849,6.037,1.629,9.324,2.37Z" fill="#ff9e85"></path>
              <path id="sh" d="m299.465,208.162c-.722-2.304-1.151-4.308-1.533-7.91-.683-6.442-.319-12.363.333-18.397-10.295-1.37-20.18-5.701-28.167-12.34-.946,3.495-6.151,18.766-4.71,22.087,2.724,6.279,15.523,16.56,34.077,16.56Z" fill="#0c0c0c" opacity=".22"></path>
              <path d="m292.71,195.169c-20.113,1.717-41.68-6.638-46.756-33.456l-8.916-24.186c-5.075-26.818,4.896-51.224,30.147-56.003h0c25.251-4.779,45.533,3.569,50.608,30.387,0,0,3.133,15.344,3.615,20.534,1.82,19.572,1.82,60.119-28.698,62.725Z" fill="#ff9e85"></path>
              <path id="e1_eb" d="m317.191,122.868c-.093.87-3.367.779-7.725.094-4.357-.685-8.216-1.497-8.055-2.575.204-1.361,3.919-1.906,8.277-1.221,4.357.685,7.648,2.334,7.502,3.702Z" fill="#0a0a0a"></path>
              <path d="m216.838,145.96l28.43,7.844c17.143-6.937,16.533-48.607,16.533-48.607,0,0,20.823,20.295,71.284,8.752,0,0-10.118-68.137-84.667-47.674-24.038,6.598-41.29,33.058-39.141,65.433,1.506,22.688,7.562,14.253,7.562,14.253Z" fill="#0a0a0a"></path>
              <path d="m244.732,169.598c-7.674,1.452-15.575-1.275-17.729-12.832-1.431-7.677,4.797-13.505,12.47-14.957l4.927,4.393,6.929,22.147-6.597,1.249Z" fill="#ff9e85"></path>
              <g>
                <circle id="e1_eye" cx="306.347" cy="134.068" r="2.795" fill="#0a0a0a"></circle>
                <g id="e1_n">
                  <path d="m294.982,157.934c-.566,0-1.05-.427-1.111-1.002-.064-.614.381-1.164.996-1.228l5.922-.619-3.645-11.828c-.181-.59.15-1.216.74-1.398.59-.181,1.215.149,1.398.739l4.045,13.128c.098.32.048.667-.136.946s-.484.461-.817.496l-7.275.761c-.039.004-.079.006-.117.006Z" fill="#0a0a0a"></path>
                </g>
                <g id="e1_m">
                  <path d="m282.888,163.209c10.12.551,12.799,6.831,12.918,7.125.232.572-.043,1.224-.614,1.457-.568.233-1.218-.04-1.454-.608-.112-.267-2.875-6.442-14.084-5.717-.629.043-1.149-.428-1.189-1.044-.04-.616.428-1.148,1.043-1.188,1.209-.078,2.335-.083,3.379-.026Z" fill="#0a0a0a"></path>
                </g>
                <path id="e1_eb-2" data-name="e1_eb" d="m283.24,122.283c.268.833-2.762,2.078-7.022,3.22s-8.117,1.965-8.407.914c-.366-1.327,2.809-3.332,7.069-4.474,4.261-1.142,7.937-.97,8.359.34Z" fill="#0a0a0a"></path>
                <circle id="e1_eye-2" data-name="e1_eye" cx="278.315" cy="135.85" r="2.796" fill="#0a0a0a"></circle>
              </g>
              <path d="m229.116,136.503l-.351,10.665c2.025-2.436,4.95-4.129,8.346-4.533.844-.112,1.682-.101,2.5-.032,5.099,4.04,1.476,11.419,5.657,11.2,2.374-.124,7.787-5.729,9.085-9.206.823-2.204-5.109-10.661-5.08-13.013" fill="#0a0a0a"></path>
            </g>
            <g>
              <path d="m555.188,220.304c-.98-1.921-2.977-2.834-4.897-2.593,0-.086-.002-.175-.055-.252-.096-.132-.244-.17-.393-.16l3.322-2.381c2.008-1.439,2.828-4.173,1.645-6.341-1.227-2.249-3.875-3.062-6.071-2.148.008-.047-.023-.092-.03-.14l1.365-.978c1.889-1.354,2.704-3.872,1.73-5.982-1.311-2.839-4.774-3.659-7.184-1.932l-3.15,2.258c-.009-.019,0-.04-.013-.058-.014-.023-.046-.023-.065-.043,1.457-1.641,1.649-4.123.316-5.982-1.487-2.392-4.919-1.903-6.955-.444l-18.539,12.805,3.314-5.579c1.329-2.237.845-5.237-1.32-6.681-2.308-1.54-5.405-.816-6.804,1.539l-18.093,30.46c-4.413,7.43-2.115,17.022,5.186,21.645h0c8.331,5.275,19.029,4.968,27.043-.777l27.996-20.067c1.847-1.324,2.683-4.146,1.65-6.17Z" fill="#ff9e85"></path>
              <g fill="none" opacity=".25">
                <path d="m523.12,212.31c.141.194.413.241.611.103l17.614-12.2c.201-.139.251-.415.112-.617-.116-.199-.416-.251-.617-.112l-17.614,12.2c-.201.139-.251.415-.112.617l.006.008Z" fill="#0c0c0c"></path>
              </g>
              <g fill="none" opacity=".25">
                <path d="m528.286,220.227c.141.194.413.241.611.103l19.658-13.616c.201-.139.251-.415.112-.617-.129-.183-.416-.251-.617-.112l-19.658,13.616c-.201.139-.251.415-.112.617l.006.008Z" fill="#0c0c0c"></path>
              </g>
              <g fill="none" opacity=".25">
                <path d="m533.833,228.834c.141.194.413.241.611.103l15.681-10.861c.201-.139.251-.415.112-.617-.145-.2-.416-.251-.617-.112l-15.681,10.861c-.201.139-.251.415-.112.617l.006.008Z" fill="#0c0c0c"></path>
              </g>
            </g>
            <path d="m485.336,214.685l-45.034,103.993-62.134-85.039-53.842,48.542,91.95,119.084.603.848c3.207,4.404,7.446,8.159,12.593,10.866,17.963,9.447,40.184,2.543,49.63-15.42l64.756-150.328-58.522-32.546Z" fill="#FFD240"></path>
            <path d="m435.093,329.559c-.104,0-.208-.024-.307-.074-.332-.169-.464-.576-.294-.908l5.209-10.207c.169-.332.577-.463.908-.294.332.169.464.576.294.908l-5.209,10.207c-.119.233-.356.368-.601.368Z" fill="#0c0c0c"></path>
            <path d="m380.962,314.933c-1.532,17.998-8.984,130.287-10.457,152.457h-203.002c-1.147-19.995-6.296-107.426-10.645-146.526-4.151-37.311-12.295-55.991-6.325-67.022,9.755-18.028,23.764-34.286,50.624-36.534,11.162-.934,31.757,3.048,31.757,3.048,0,0,1.413,28.594,35.117,30.185,45.88,2.165,42.83-30.107,43.044-30.185,9.458-3.458,41.114-9.001,55.612.572,27.657,18.263,17.527,55.864,14.276,94.005Z" fill="#FFD240"></path>
            <rect x="364.962" y="340.27" width="28.627" height="1.35" transform="translate(17.389 700.292) rotate(-86.752)" fill="#0c0c0c"></rect>
            <g>
              <path d="m.647,232.921c1.153-1.823,3.225-2.547,5.115-2.131.008-.086.018-.174.077-.246.108-.123.259-.147.406-.123l-3.088-2.677c-1.867-1.618-2.432-4.416-1.054-6.466,1.429-2.126,4.141-2.692,6.243-1.58-.004-.048.032-.09.043-.137l-1.269-1.1c-1.756-1.522-2.336-4.105-1.172-6.116,1.566-2.706,5.091-3.204,7.331-1.262l2.929,2.538c.011-.018.004-.04.018-.057.016-.022.048-.019.068-.037-1.3-1.769-1.262-4.258.236-5.986,1.701-2.245,5.073-1.442,6.967.199l17.28,14.458-2.786-5.86c-1.117-2.35-.359-5.293,1.929-6.531,2.44-1.321,5.457-.315,6.633,2.159l15.211,31.997c3.71,7.805.538,17.145-7.157,21.076h0c-8.781,4.486-19.406,3.194-26.857-3.264L1.722,239.216c-1.717-1.488-2.29-4.375-1.075-6.296Z" fill="#ff9e85"></path>
              <g fill="none" opacity=".25">
                <path d="m33.315,227.914c-.159.18-.433.202-.618.047l-16.416-13.771c-.187-.157-.212-.437-.055-.625.134-.188.437-.212.625-.055l16.416,13.771c.187.157.212.437.055.625l-.007.008Z" fill="#0c0c0c"></path>
              </g>
              <g fill="none" opacity=".25">
                <path d="m27.442,235.321c-.159.18-.433.202-.618.047l-18.32-15.368c-.187-.157-.212-.437-.055-.625.145-.171.437-.212.625-.055l18.32,15.368c.187.157.212.437.055.625l-.007.008Z" fill="#0c0c0c"></path>
              </g>
              <g fill="none" opacity=".25">
                <path d="m21.126,243.381c-.159.18-.433.202-.618.047l-14.614-12.259c-.187-.157-.212-.437-.055-.625.163-.186.437-.212.625-.055l14.614,12.259c.187.157.212.437.055.625l-.007.008Z" fill="#0c0c0c"></path>
              </g>
            </g>
            <path d="m68.905,231.578l34.234,87.793,49.984-70.189,53.842,48.542-77.1,117.734-.603.848c-3.207,4.404-7.446,8.159-12.593,10.866-17.963,9.447-40.184,2.543-49.63-15.42L11.733,262.774l57.172-31.196Z" fill="#FFD240"></path>
            <path d="m108.348,330.253c.104,0,.208-.024.307-.074.332-.169.464-.576.294-.908l-5.209-10.207c-.169-.332-.577-.463-.908-.294-.332.169-.464.576-.294.908l5.209,10.207c.119.233.356.368.601.368Z" fill="#0c0c0c"></path>
          </g>
          <path d="m161.005,368.694c-.406,0-.751-.312-.784-.724l-2.138-26.417c-.035-.433.287-.813.721-.848.43-.038.813.288.848.721l2.138,26.417c.035.433-.287.813-.721.848-.022.002-.043.003-.064.003Z" fill="#292a2e"></path>
        </g>
        <g>
          <polygon points="720.168 256.959 718.168 256.959 718.168 66.848 514.531 66.848 514.531 64.848 720.168 64.848 720.168 256.959" fill="#0a0a0a"></polygon>
          <g>
            <g>
              <path d="m709.335,8.542l-59.616,103.257c-4.37,7.57,1.093,17.032,9.833,17.032h119.231c8.741,0,14.204-9.462,9.833-17.032l-59.616-103.257c-4.37-7.57-15.296-7.57-19.666,0Z" fill="#fff"></path>
              <path d="m778.784,129.831h-119.231c-4.467,0-8.467-2.31-10.7-6.178-2.232-3.868-2.232-8.486,0-12.354l59.615-103.257c2.233-3.868,6.232-6.177,10.699-6.177s8.466,2.309,10.699,6.177l59.616,103.257c2.232,3.868,2.232,8.486,0,12.354-2.233,3.868-6.233,6.177-10.699,6.177ZM719.168,3.865c-3.743,0-7.096,1.936-8.967,5.177h0l-59.615,103.257c-1.872,3.242-1.872,7.112,0,10.354,1.871,3.242,5.224,5.178,8.968,5.178h119.231c3.743,0,7.096-1.936,8.967-5.177,1.872-3.242,1.872-7.112,0-10.354l-59.616-103.257c-1.871-3.242-5.224-5.177-8.967-5.177Zm-9.833,4.677h.01-.01Z" fill="#292a2e"></path>
            </g>
            <path d="m711.262,98.365c0-4.674,3.371-8.276,7.92-8.276s7.919,3.603,7.919,8.276c0,4.642-3.371,8.245-7.919,8.245s-7.92-3.603-7.92-8.245Zm1.785-40.765l-.441-11.857h13.151l-.441,11.857-1.828,27.293h-8.612l-1.828-27.293Z" fill="#292a2e"></path>
          </g>
          <g>
            <g>
              <path d="m803.946,384.089h-169.555c-5.063,0-6.202-5.896-4.578-9.01l10.667-14.235c.806-1.545,2.404-2.514,4.146-2.514h149.084c1.743,0,3.341.969,4.146,2.514l10.667,14.235c1.624,3.113.485,9.01-4.578,9.01Z" fill="#292a2e"></path>
              <g>
                <rect x="665.964" y="225.578" width="106.408" height="152.381" rx="6.541" ry="6.541" transform="translate(417.399 1020.936) rotate(-90)" fill="#292a2e"></rect>
                <path d="m791.242,256.658v90.221c0,2.327-1.886,4.213-4.213,4.213h-135.959c-2.354,0-4.263-1.909-4.263-4.263v-90.12c0-2.354,1.909-4.263,4.263-4.263h135.959c2.327,0,4.213,1.886,4.213,4.213Z" fill="#fff"></path>
              </g>
              <path d="m803.946,380.731h-169.555c-3.511,0-5.77-3.726-4.146-6.839l10.235-16.405c.806-1.545,2.404-2.514,4.146-2.514h149.084c1.743,0,3.341.969,4.146,2.514l10.235,16.405c1.624,3.113-.635,6.839-4.146,6.839Z" fill="#292a2e"></path>
              <path d="m803.946,380.731h-169.555c-3.511,0-5.77-3.726-4.146-6.839l10.235-16.405c.806-1.545,2.404-2.514,4.146-2.514h149.084c1.743,0,3.341.969,4.146,2.514l10.235,16.405c1.624,3.113-.635,6.839-4.146,6.839Z" fill="#fff" opacity=".1"></path>
            </g>
            <g>
              <path d="m714.425,271.335l-28.758,49.81c-2.108,3.652.527,8.216,4.743,8.216h57.516c4.216,0,6.852-4.564,4.743-8.216l-28.758-49.81c-2.108-3.652-7.379-3.652-9.487,0Z" fill="#FFD240"></path>
              <path d="m715.354,314.665c0-2.255,1.626-3.993,3.82-3.993s3.821,1.738,3.821,3.993c0,2.24-1.627,3.978-3.821,3.978s-3.82-1.738-3.82-3.978Zm.861-19.668l-.213-5.721h6.345l-.213,5.721-.882,13.168h-4.155l-.882-13.168Z" fill="#fff"></path>
            </g>
          </g>
          <g>
            <g>
              <rect x="405.383" y="1" width="147.001" height="121.037" fill="#fff"></rect>
              <path d="m552.385,123.037h-147.001c-.553,0-1-.448-1-1V1c0-.552.447-1,1-1h147.001c.553,0,1,.448,1,1v121.037c0,.552-.447,1-1,1Zm-146.001-2h145.001V2h-145.001v119.037Z" fill="#292a2e"></path>
            </g>
            <g>
              <g>
                <rect x="438.349" y="6.204" width="108.666" height="32.678" fill="#FFD240"></rect>
                <g fill="none" opacity=".69">
                  <rect x="438.349" y="6.204" width="108.666" height="32.678" fill="#fff"></rect>
                </g>
                <path d="m547.016,39.426h-108.666c-.301,0-.545-.244-.545-.545V6.204c0-.301.244-.545.545-.545h108.666c.301,0,.545.244.545.545v32.678c0,.301-.244.545-.545.545Zm-108.121-1.09h107.576V6.749h-107.576v31.588Z" fill="#292a2e"></path>
                <g>
                  <circle cx="454.857" cy="22.543" r="6.704" fill="#fff"></circle>
                  <path d="m454.857,29.791c-3.997,0-7.249-3.252-7.249-7.249s3.252-7.249,7.249-7.249,7.249,3.252,7.249,7.249-3.252,7.249-7.249,7.249Zm0-13.408c-3.396,0-6.159,2.763-6.159,6.159s2.763,6.159,6.159,6.159,6.159-2.763,6.159-6.159-2.763-6.159-6.159-6.159Z" fill="#292a2e"></path>
                </g>
                <path d="m516.597,22.415h-46.386c-.301,0-.545-.244-.545-.545s.244-.545.545-.545h46.386c.301,0,.545.244.545.545s-.244.545-.545.545Z" fill="#292a2e"></path>
                <path d="m528.851,22.415h-1.73c-.301,0-.545-.244-.545-.545s.244-.545.545-.545h1.73c.301,0,.545.244.545.545s-.244.545-.545.545Z" fill="#292a2e"></path>
                <path d="m522.779,22.415h-1.73c-.301,0-.545-.244-.545-.545s.244-.545.545-.545h1.73c.301,0,.545.244.545.545s-.244.545-.545.545Z" fill="#292a2e"></path>
                <path d="m535.338,22.415h-1.73c-.301,0-.545-.244-.545-.545s.244-.545.545-.545h1.73c.301,0,.545.244.545.545s-.244.545-.545.545Z" fill="#292a2e"></path>
              </g>
              <g>
                <rect x="438.349" y="44.602" width="108.666" height="32.678" fill="#FFD240"></rect>
                <g fill="none" opacity=".69">
                  <rect x="438.349" y="44.602" width="108.666" height="32.678" fill="#fff"></rect>
                </g>
                <path d="m547.016,77.824h-108.666c-.301,0-.545-.244-.545-.545v-32.678c0-.301.244-.545.545-.545h108.666c.301,0,.545.244.545.545v32.678c0,.301-.244.545-.545.545Zm-108.121-1.09h107.576v-31.588h-107.576v31.588Z" fill="#292a2e"></path>
                <g>
                  <circle cx="454.857" cy="60.941" r="6.704" fill="#fff"></circle>
                  <path d="m454.857,68.189c-3.997,0-7.249-3.252-7.249-7.249s3.252-7.249,7.249-7.249,7.249,3.252,7.249,7.249-3.252,7.249-7.249,7.249Zm0-13.408c-3.396,0-6.159,2.763-6.159,6.159s2.763,6.159,6.159,6.159,6.159-2.763,6.159-6.159-2.763-6.159-6.159-6.159Z" fill="#292a2e"></path>
                </g>
                <path d="m516.597,60.813h-46.386c-.301,0-.545-.244-.545-.545s.244-.545.545-.545h46.386c.301,0,.545.244.545.545s-.244.545-.545.545Z" fill="#292a2e"></path>
                <path d="m528.851,60.813h-1.73c-.301,0-.545-.244-.545-.545s.244-.545.545-.545h1.73c.301,0,.545.244.545.545s-.244.545-.545.545Z" fill="#292a2e"></path>
                <path d="m522.779,60.813h-1.73c-.301,0-.545-.244-.545-.545s.244-.545.545-.545h1.73c.301,0,.545.244.545.545s-.244.545-.545.545Z" fill="#292a2e"></path>
                <path d="m535.338,60.813h-1.73c-.301,0-.545-.244-.545-.545s.244-.545.545-.545h1.73c.301,0,.545.244.545.545s-.244.545-.545.545Z" fill="#292a2e"></path>
              </g>
              <g>
                <rect x="438.349" y="83" width="108.666" height="32.678" fill="#FFD240"></rect>
                <g fill="none" opacity=".69">
                  <rect x="438.349" y="83" width="108.666" height="32.678" fill="#fff"></rect>
                </g>
                <path d="m547.016,116.223h-108.666c-.301,0-.545-.244-.545-.545v-32.678c0-.301.244-.545.545-.545h108.666c.301,0,.545.244.545.545v32.678c0,.301-.244.545-.545.545Zm-108.121-1.09h107.576v-31.588h-107.576v31.588Z" fill="#292a2e"></path>
                <g>
                  <circle cx="454.857" cy="99.339" r="6.704" fill="#fff"></circle>
                  <path d="m454.857,106.587c-3.997,0-7.249-3.252-7.249-7.249s3.252-7.249,7.249-7.249,7.249,3.252,7.249,7.249-3.252,7.249-7.249,7.249Zm0-13.408c-3.396,0-6.159,2.763-6.159,6.159s2.763,6.159,6.159,6.159,6.159-2.763,6.159-6.159-2.763-6.159-6.159-6.159Z" fill="#292a2e"></path>
                </g>
                <path d="m516.597,99.211h-46.386c-.301,0-.545-.244-.545-.545s.244-.545.545-.545h46.386c.301,0,.545.244.545.545s-.244.545-.545.545Z" fill="#292a2e"></path>
                <path d="m528.851,99.211h-1.73c-.301,0-.545-.244-.545-.545s.244-.545.545-.545h1.73c.301,0,.545.244.545.545s-.244.545-.545.545Z" fill="#292a2e"></path>
                <path d="m522.779,99.211h-1.73c-.301,0-.545-.244-.545-.545s.244-.545.545-.545h1.73c.301,0,.545.244.545.545s-.244.545-.545.545Z" fill="#292a2e"></path>
                <path d="m535.338,99.211h-1.73c-.301,0-.545-.244-.545-.545s.244-.545.545-.545h1.73c.301,0,.545.244.545.545s-.244.545-.545.545Z" fill="#292a2e"></path>
              </g>
            </g>
            <path d="m432.643,123.037c-.553,0-1-.448-1-1V1c0-.552.447-1,1-1s1,.448,1,1v121.037c0,.552-.447,1-1,1Z" fill="#292a2e"></path>
          </g>
          <g>
            <circle cx="584.122" cy="65.848" r="4.476" fill="#fff"></circle>
            <path d="m584.122,71.324c-3.02,0-5.476-2.457-5.476-5.477s2.456-5.477,5.476-5.477,5.477,2.457,5.477,5.477-2.457,5.477-5.477,5.477Zm0-8.953c-1.916,0-3.476,1.56-3.476,3.477s1.56,3.477,3.476,3.477,3.477-1.56,3.477-3.477-1.56-3.477-3.477-3.477Z" fill="#292a2e"></path>
          </g>
          <g>
            <circle cx="636.022" cy="65.848" r="4.476" fill="#fff"></circle>
            <path d="m636.022,71.324c-3.02,0-5.477-2.457-5.477-5.477s2.457-5.477,5.477-5.477,5.477,2.457,5.477,5.477-2.457,5.477-5.477,5.477Zm0-8.953c-1.917,0-3.477,1.56-3.477,3.477s1.56,3.477,3.477,3.477,3.477-1.56,3.477-3.477-1.56-3.477-3.477-3.477Z" fill="#292a2e"></path>
          </g>
          <g>
            <g>
              <circle cx="719.168" cy="188.743" r="15.736" fill="#fff"></circle>
              <path d="m719.168,205.479c-9.228,0-16.735-7.508-16.735-16.736s7.508-16.736,16.735-16.736,16.736,7.508,16.736,16.736-7.508,16.736-16.736,16.736Zm0-31.472c-8.125,0-14.735,6.61-14.735,14.736s6.61,14.736,14.735,14.736,14.736-6.611,14.736-14.736-6.61-14.736-14.736-14.736Z" fill="#292a2e"></path>
            </g>
            <g>
              <path d="m725.645,196.221c-.256,0-.512-.098-.707-.293l-12.954-12.955c-.391-.391-.391-1.023,0-1.414s1.023-.391,1.414,0l12.954,12.955c.391.391.391,1.023,0,1.414-.195.195-.451.293-.707.293Z" fill="#0a0a0a"></path>
              <path d="m712.691,196.221c-.256,0-.512-.098-.707-.293-.391-.391-.391-1.023,0-1.414l12.954-12.955c.391-.391,1.023-.391,1.414,0s.391,1.023,0,1.414l-12.954,12.955c-.195.195-.451.293-.707.293Z" fill="#0a0a0a"></path>
            </g>
          </g>
        </g>
      </g>
      <path d="m404.184,468.086h-255.068c-.385,0-.697-.312-.697-.697s.312-.697.697-.697h255.068c.385,0,.697.312.697.697s-.312.697-.697.697Z" fill="#292a2e"></path>
    </g>
  </g>
</svg>