<svg xmlns="http://www.w3.org/2000/svg" xmlns:xlink="http://www.w3.org/1999/xlink" width="250" zoomAndPan="magnify" viewBox="0 0 187.5 187.499992" height="250" preserveAspectRatio="xMidYMid meet" version="1.0"><defs><clipPath id="0d1b8d1920"><path d="M 110 36.652344 L 168.300781 36.652344 L 168.300781 140 L 110 140 Z M 110 36.652344 " clip-rule="nonzero"/></clipPath><clipPath id="541cf31761"><path d="M 19 82 L 56 82 L 56 150.347656 L 19 150.347656 Z M 19 82 " clip-rule="nonzero"/></clipPath></defs><path fill="#000000" d="M 60.070312 127.535156 L 70.855469 127.535156 L 70.855469 129.796875 L 60.070312 129.796875 Z M 60.070312 127.535156 " fill-opacity="1" fill-rule="nonzero"/><g clip-path="url(#0d1b8d1920)"><path fill="#000000" d="M 112.609375 38.699219 L 153.59375 38.699219 L 119.832031 47.3125 L 119.832031 139.886719 L 120.003906 139.84375 L 159.382812 129.796875 L 168.289062 129.796875 L 168.289062 127.535156 L 161.847656 127.535156 L 161.847656 36.679688 L 110.585938 36.679688 L 110.585938 79.546875 C 111.230469 79.808594 111.902344 80.023438 112.609375 80.203125 Z M 129.632812 63.070312 L 154.042969 56.84375 L 154.042969 61.273438 L 129.632812 67.5 Z M 123.550781 87.847656 L 126.582031 86.835938 L 126.582031 106.027344 L 123.550781 107.035156 Z M 123.550781 87.847656 " fill-opacity="1" fill-rule="nonzero"/></g><path fill="#000000" d="M 117.3125 127.234375 L 112.609375 127.234375 L 112.609375 89.441406 C 111.921875 89.328125 111.25 89.191406 110.585938 89.027344 L 110.585938 127.535156 L 98.703125 127.535156 L 98.703125 129.796875 L 117.3125 129.796875 Z M 117.3125 127.234375 " fill-opacity="1" fill-rule="nonzero"/><path fill="#000000" d="M 74.023438 68.589844 C 72.355469 69.714844 70.824219 71.304688 69.578125 73.207031 C 68.992188 74.121094 68.464844 75.109375 68.074219 76.171875 C 67.648438 77.320312 67.378906 78.554688 67.371094 79.875 C 67.367188 81.160156 67.65625 82.53125 68.34375 83.78125 C 69.375 85.683594 71.230469 87.136719 73.578125 88.023438 C 75.9375 88.917969 78.855469 89.359375 82.566406 89.363281 C 83.21875 89.363281 83.894531 89.347656 84.597656 89.320312 C 86.261719 89.253906 87.554688 87.851562 87.488281 86.1875 C 87.421875 84.523438 86.019531 83.226562 84.355469 83.292969 C 83.730469 83.320312 83.132812 83.332031 82.570312 83.332031 C 78.269531 83.347656 75.742188 82.578125 74.617188 81.847656 C 74.046875 81.480469 73.792969 81.167969 73.636719 80.886719 C 73.484375 80.605469 73.40625 80.308594 73.402344 79.875 C 73.371094 79.148438 73.734375 78.054688 74.34375 76.972656 L 75.15625 77.078125 C 74.507812 78.152344 74.128906 79.242188 74.15625 79.839844 C 74.160156 80.199219 74.214844 80.375 74.300781 80.53125 C 74.390625 80.695312 74.558594 80.914062 75.023438 81.210938 C 75.519531 81.535156 77.503906 82.578125 82.453125 82.578125 L 82.566406 82.578125 C 83.121094 82.578125 83.710938 82.566406 84.324219 82.539062 C 84.375 82.539062 84.425781 82.539062 84.476562 82.539062 C 86.507812 82.539062 88.160156 84.128906 88.242188 86.15625 C 88.28125 87.164062 87.929688 88.125 87.246094 88.863281 C 86.5625 89.605469 85.632812 90.035156 84.625 90.074219 C 83.925781 90.101562 83.234375 90.117188 82.570312 90.117188 L 82.566406 90.117188 C 79.179688 90.113281 76.402344 89.746094 74.09375 88.996094 L 74.09375 132.824219 C 74.09375 135.398438 76.183594 137.484375 78.753906 137.484375 C 81.328125 137.484375 83.414062 135.398438 83.414062 132.824219 L 83.414062 98.800781 L 85.164062 98.800781 L 85.164062 132.824219 C 85.164062 135.398438 87.25 137.484375 89.820312 137.484375 C 92.394531 137.484375 94.484375 135.398438 94.484375 132.824219 L 94.484375 75.054688 C 94.679688 75.261719 94.882812 75.476562 95.09375 75.71875 C 96.65625 77.480469 98.511719 80.101562 101.285156 82.535156 C 104.058594 84.976562 107.855469 87.160156 113 87.980469 C 113.164062 88.007812 113.324219 88.019531 113.488281 88.019531 C 114.9375 88.019531 116.21875 86.964844 116.460938 85.488281 C 116.726562 83.84375 115.609375 82.292969 113.964844 82.027344 C 110.90625 81.523438 108.707031 80.515625 106.871094 79.253906 C 104.121094 77.367188 102.214844 74.804688 100.144531 72.34375 C 99.101562 71.117188 98.003906 69.90625 96.578125 68.90625 C 95.316406 68.007812 93.699219 67.335938 91.917969 67.21875 C 91.800781 67.203125 91.6875 67.195312 91.570312 67.195312 L 91.320312 67.195312 C 91.3125 67.195312 91.300781 67.191406 91.292969 67.191406 C 91.285156 67.191406 91.277344 67.195312 91.269531 67.195312 L 88.960938 67.195312 C 87.273438 69.039062 84.847656 70.199219 82.152344 70.199219 C 79.625 70.199219 77.332031 69.175781 75.664062 67.523438 C 75.402344 67.660156 75.167969 67.832031 74.960938 68.035156 C 74.640625 68.207031 74.332031 68.394531 74.023438 68.589844 Z M 74.023438 68.589844 " fill-opacity="1" fill-rule="nonzero"/><path fill="#000000" d="M 90.632812 60.964844 C 90.632812 61.519531 90.578125 62.070312 90.46875 62.617188 C 90.363281 63.164062 90.199219 63.695312 89.988281 64.210938 C 89.773438 64.722656 89.511719 65.210938 89.203125 65.675781 C 88.894531 66.136719 88.542969 66.566406 88.148438 66.960938 C 87.753906 67.355469 87.328125 67.707031 86.863281 68.015625 C 86.402344 68.324219 85.914062 68.585938 85.398438 68.800781 C 84.882812 69.011719 84.351562 69.171875 83.808594 69.28125 C 83.261719 69.390625 82.710938 69.445312 82.152344 69.445312 C 81.59375 69.445312 81.042969 69.390625 80.496094 69.28125 C 79.953125 69.171875 79.421875 69.011719 78.90625 68.800781 C 78.390625 68.585938 77.902344 68.324219 77.441406 68.015625 C 76.976562 67.707031 76.550781 67.355469 76.15625 66.960938 C 75.761719 66.566406 75.410156 66.136719 75.101562 65.675781 C 74.792969 65.210938 74.53125 64.722656 74.316406 64.210938 C 74.105469 63.695312 73.941406 63.164062 73.835938 62.617188 C 73.726562 62.070312 73.671875 61.519531 73.671875 60.964844 C 73.671875 60.40625 73.726562 59.855469 73.835938 59.308594 C 73.941406 58.761719 74.105469 58.234375 74.316406 57.71875 C 74.53125 57.203125 74.792969 56.714844 75.101562 56.253906 C 75.410156 55.789062 75.761719 55.359375 76.15625 54.96875 C 76.550781 54.574219 76.976562 54.222656 77.441406 53.914062 C 77.902344 53.601562 78.390625 53.339844 78.90625 53.128906 C 79.421875 52.914062 79.953125 52.753906 80.496094 52.644531 C 81.042969 52.539062 81.59375 52.484375 82.152344 52.484375 C 82.710938 52.484375 83.261719 52.539062 83.808594 52.644531 C 84.351562 52.753906 84.882812 52.914062 85.398438 53.128906 C 85.914062 53.339844 86.402344 53.601562 86.863281 53.914062 C 87.328125 54.222656 87.753906 54.574219 88.148438 54.96875 C 88.542969 55.359375 88.894531 55.789062 89.203125 56.253906 C 89.511719 56.714844 89.773438 57.203125 89.988281 57.71875 C 90.199219 58.234375 90.363281 58.761719 90.46875 59.308594 C 90.578125 59.855469 90.632812 60.40625 90.632812 60.964844 Z M 90.632812 60.964844 " fill-opacity="1" fill-rule="nonzero"/><g clip-path="url(#541cf31761)"><path fill="#000000" d="M 27.460938 148.75 C 35.3125 139.949219 38.496094 131.324219 39.601562 124.707031 C 42.101562 129.28125 44.839844 136.210938 46.425781 146.273438 C 46.789062 148.597656 48.792969 150.257812 51.074219 150.257812 C 51.316406 150.257812 51.5625 150.238281 51.808594 150.199219 C 54.378906 149.796875 56.136719 147.390625 55.734375 144.816406 C 53.765625 132.183594 49.996094 123.535156 46.59375 117.988281 C 46.289062 117.492188 45.988281 117.03125 45.691406 116.585938 C 44.988281 116.542969 44.320312 116.304688 43.738281 115.890625 C 39.710938 113.019531 36.726562 109.636719 34.867188 105.835938 C 33.367188 102.78125 32.605469 99.503906 32.609375 96.089844 C 32.621094 91.582031 33.929688 88.3125 34.328125 87.417969 L 34.332031 87.414062 L 34.347656 87.375 C 34.96875 86.058594 36.304688 85.210938 37.761719 85.210938 C 38.316406 85.210938 38.855469 85.332031 39.363281 85.570312 C 41.234375 86.449219 42.046875 88.691406 41.179688 90.566406 C 41.144531 90.644531 41.109375 90.726562 41.066406 90.839844 C 40.976562 91.074219 40.84375 91.457031 40.703125 91.964844 C 40.449219 92.886719 40.148438 94.351562 40.148438 96.089844 C 40.152344 98.347656 40.652344 100.507812 41.632812 102.519531 C 41.65625 102.566406 41.683594 102.613281 41.707031 102.660156 C 42.164062 98.730469 43.023438 94.914062 43.621094 91.867188 C 44.703125 88.113281 43.289062 83.625 40.070312 82.824219 C 36.851562 82.019531 32.1875 83.769531 30.289062 89.285156 C 27.722656 96.890625 27.175781 101.839844 28.148438 110.214844 C 28.558594 112.328125 29.335938 113.78125 30.3125 114.773438 C 30.316406 114.78125 30.316406 114.785156 30.316406 114.792969 C 30.347656 114.910156 30.679688 116.339844 30.679688 118.6875 C 30.648438 123.605469 29.328125 132.421875 20.417969 142.488281 C 18.6875 144.433594 18.863281 147.410156 20.808594 149.140625 C 21.707031 149.9375 22.824219 150.332031 23.9375 150.332031 C 25.238281 150.332031 26.53125 149.796875 27.460938 148.75 Z M 27.460938 148.75 " fill-opacity="1" fill-rule="nonzero"/></g><path fill="#000000" d="M 46.152344 64.429688 C 46.695312 64.554688 47.21875 64.730469 47.726562 64.960938 C 48.234375 65.191406 48.714844 65.46875 49.167969 65.792969 C 49.617188 66.117188 50.035156 66.480469 50.417969 66.886719 C 50.796875 67.292969 51.132812 67.734375 51.429688 68.207031 C 51.722656 68.679688 51.96875 69.175781 52.164062 69.695312 C 52.359375 70.21875 52.503906 70.753906 52.59375 71.300781 C 52.6875 71.851562 52.722656 72.40625 52.703125 72.960938 C 52.6875 73.515625 52.613281 74.066406 52.488281 74.609375 C 52.359375 75.152344 52.183594 75.675781 51.953125 76.183594 C 51.722656 76.691406 51.445312 77.171875 51.121094 77.621094 C 50.800781 78.074219 50.433594 78.492188 50.027344 78.871094 C 49.621094 79.253906 49.183594 79.589844 48.710938 79.886719 C 48.238281 80.179688 47.738281 80.425781 47.21875 80.621094 C 46.699219 80.816406 46.164062 80.960938 45.613281 81.050781 C 45.0625 81.140625 44.511719 81.179688 43.953125 81.160156 C 43.398438 81.140625 42.847656 81.070312 42.304688 80.945312 C 41.765625 80.816406 41.238281 80.640625 40.734375 80.410156 C 40.226562 80.179688 39.746094 79.902344 39.292969 79.578125 C 38.839844 79.253906 38.421875 78.890625 38.042969 78.484375 C 37.660156 78.078125 37.324219 77.636719 37.03125 77.164062 C 36.738281 76.691406 36.492188 76.195312 36.296875 75.675781 C 36.097656 75.152344 35.957031 74.617188 35.863281 74.070312 C 35.773438 73.519531 35.738281 72.96875 35.753906 72.410156 C 35.773438 71.855469 35.84375 71.304688 35.972656 70.761719 C 36.097656 70.21875 36.277344 69.695312 36.503906 69.1875 C 36.734375 68.679688 37.011719 68.203125 37.335938 67.75 C 37.660156 67.296875 38.027344 66.878906 38.433594 66.5 C 38.839844 66.117188 39.277344 65.78125 39.75 65.488281 C 40.222656 65.191406 40.71875 64.949219 41.242188 64.75 C 41.761719 64.554688 42.296875 64.410156 42.847656 64.320312 C 43.394531 64.230469 43.949219 64.195312 44.503906 64.210938 C 45.0625 64.230469 45.609375 64.300781 46.152344 64.429688 Z M 46.152344 64.429688 " fill-opacity="1" fill-rule="nonzero"/><path fill="#000000" d="M 39.394531 96.089844 C 39.394531 94.332031 39.6875 92.816406 39.976562 91.765625 C 40.121094 91.242188 40.261719 90.835938 40.363281 90.574219 C 40.410156 90.445312 40.449219 90.351562 40.472656 90.296875 C 40.484375 90.273438 40.492188 90.253906 40.492188 90.25 C 41.191406 88.746094 40.546875 86.957031 39.042969 86.25 C 37.535156 85.542969 35.738281 86.191406 35.03125 87.695312 C 34.921875 87.945312 33.375 91.242188 33.363281 96.089844 C 33.363281 98.859375 33.894531 102.144531 35.542969 105.503906 C 37.1875 108.867188 39.945312 112.261719 44.175781 115.277344 C 44.707031 115.660156 45.320312 115.839844 45.925781 115.839844 C 46.867188 115.839844 47.792969 115.402344 48.382812 114.578125 C 49.351562 113.222656 49.039062 111.339844 47.683594 110.371094 C 44.167969 107.855469 42.152344 105.273438 40.957031 102.851562 C 39.769531 100.421875 39.398438 98.105469 39.394531 96.089844 Z M 39.394531 96.089844 " fill-opacity="1" fill-rule="nonzero"/></svg>