<svg xmlns="http://www.w3.org/2000/svg" xmlns:xlink="http://www.w3.org/1999/xlink" width="250" zoomAndPan="magnify" viewBox="0 0 187.5 187.499992" height="250" preserveAspectRatio="xMidYMid meet" version="1.0"><defs><clipPath id="22f0c75f9a"><path d="M 41 108 L 57 108 L 57 168.300781 L 41 168.300781 Z M 41 108 " clip-rule="nonzero"/></clipPath><clipPath id="69ff1f1cd7"><path d="M 59 95 L 76 95 L 76 168.300781 L 59 168.300781 Z M 59 95 " clip-rule="nonzero"/></clipPath></defs><path fill="#000000" d="M 111.898438 59.683594 L 120.738281 43.511719 C 118.488281 44.507812 116.25 45.632812 114.058594 46.90625 C 106.261719 51.425781 99.875 57.152344 95.679688 62.898438 L 107.738281 62.292969 C 109.484375 62.207031 111.0625 61.214844 111.898438 59.683594 Z M 111.898438 59.683594 " fill-opacity="1" fill-rule="nonzero"/><path fill="#000000" d="M 123.695312 27.617188 C 121.257812 26.277344 118.207031 27.1875 116.875 29.617188 L 116.351562 30.578125 C 118.9375 29.515625 121.507812 28.640625 124.070312 27.933594 C 123.929688 27.839844 123.84375 27.699219 123.695312 27.617188 Z M 123.695312 27.617188 " fill-opacity="1" fill-rule="nonzero"/><path fill="#000000" d="M 66.414062 33.871094 C 67.292969 32.820312 68.53125 32.171875 69.898438 32.050781 C 70.050781 32.039062 70.207031 32.03125 70.359375 32.03125 C 72.453125 32.03125 74.21875 33.28125 75.015625 35.09375 L 77.160156 34.902344 C 77.671875 32.839844 79.394531 31.207031 81.632812 31.007812 C 81.789062 30.996094 81.941406 30.988281 82.09375 30.988281 C 83.105469 30.988281 84 31.347656 84.792969 31.847656 C 83.878906 26.214844 79.613281 21.460938 73.683594 20.261719 C 66.03125 18.714844 58.566406 23.65625 57.019531 31.300781 C 56.644531 33.136719 56.667969 34.960938 56.992188 36.695312 L 65.414062 35.949219 C 65.597656 35.195312 65.902344 34.480469 66.414062 33.871094 Z M 66.414062 33.871094 " fill-opacity="1" fill-rule="nonzero"/><path fill="#000000" d="M 82.085938 41.25 C 79.410156 41.25 77.210938 39.238281 76.972656 36.574219 C 76.96875 36.519531 76.992188 36.46875 76.992188 36.414062 L 75.425781 36.554688 C 75.433594 36.609375 75.464844 36.652344 75.472656 36.707031 C 75.722656 39.523438 73.628906 42.023438 70.808594 42.273438 C 70.65625 42.285156 70.503906 42.292969 70.351562 42.292969 C 67.671875 42.292969 65.472656 40.28125 65.238281 37.617188 C 65.230469 37.5625 65.257812 37.511719 65.253906 37.457031 L 57.398438 38.15625 C 58.855469 42.972656 62.789062 46.875 68.070312 47.941406 C 74.207031 49.183594 80.164062 46.214844 83.105469 41.066406 C 82.914062 41.105469 82.742188 41.210938 82.546875 41.230469 C 82.390625 41.242188 82.238281 41.25 82.085938 41.25 Z M 82.085938 41.25 " fill-opacity="1" fill-rule="nonzero"/><g clip-path="url(#22f0c75f9a)"><path fill="#000000" d="M 53.566406 108.382812 L 41 115.671875 L 41 160.492188 C 41 164.777344 44.480469 168.25 48.769531 168.25 C 53.058594 168.25 56.539062 164.777344 56.539062 160.492188 L 56.539062 109.699219 C 56.519531 109.695312 56.503906 109.695312 56.484375 109.695312 C 55.386719 109.539062 54.429688 109.03125 53.566406 108.382812 Z M 53.566406 108.382812 " fill-opacity="1" fill-rule="nonzero"/></g><path fill="#000000" d="M 43.859375 96.425781 C 43.035156 95.863281 42.199219 95.300781 41.367188 94.746094 C 41.332031 94.722656 41.292969 94.695312 41.257812 94.671875 L 41.210938 94.902344 C 41.140625 95.25 41.207031 95.582031 41.210938 95.925781 C 41.160156 96.28125 41 96.597656 41 96.96875 L 41 98.085938 Z M 43.859375 96.425781 " fill-opacity="1" fill-rule="nonzero"/><g clip-path="url(#69ff1f1cd7)"><path fill="#000000" d="M 74.992188 160.492188 L 74.992188 99.347656 L 75.769531 95.503906 L 63.824219 102.433594 C 63.824219 103.023438 63.894531 103.585938 63.804688 104.207031 C 63.453125 106.660156 61.707031 108.613281 59.453125 109.378906 L 59.453125 160.492188 C 59.453125 164.777344 62.933594 168.25 67.222656 168.25 C 71.511719 168.25 74.992188 164.777344 74.992188 160.492188 Z M 74.992188 160.492188 " fill-opacity="1" fill-rule="nonzero"/></g><path fill="#000000" d="M 77.332031 92.421875 C 79.003906 91.453125 79.96875 89.734375 80.058594 87.9375 L 87.207031 83.792969 C 87.222656 83.820312 87.234375 83.851562 87.25 83.882812 C 90.386719 89.273438 96.894531 92.210938 105.640625 92.210938 C 105.972656 92.210938 106.3125 92.207031 106.652344 92.195312 C 115.5625 91.972656 125.710938 88.808594 135.222656 83.292969 C 144.734375 77.777344 152.511719 70.542969 157.121094 62.921875 C 161.910156 55.011719 162.757812 47.574219 159.503906 41.976562 L 156.070312 36.074219 C 152.816406 30.480469 145.914062 27.523438 136.671875 27.757812 C 127.757812 27.984375 117.613281 31.144531 108.101562 36.660156 C 98.589844 42.175781 90.8125 49.410156 86.199219 57.03125 C 81.410156 64.945312 80.566406 72.382812 83.820312 77.980469 C 83.871094 78.066406 83.929688 78.148438 83.980469 78.234375 L 76.828125 82.382812 C 75.222656 81.570312 73.25 81.558594 71.578125 82.527344 L 57.558594 90.65625 C 60.660156 93.445312 63.027344 96.59375 63.691406 100.332031 Z M 113.113281 45.277344 C 122.886719 39.605469 132.988281 36.730469 141.164062 36.730469 C 146.796875 36.730469 151.511719 38.101562 154.578125 40.867188 C 155.472656 44.984375 154.261719 50.011719 151 55.398438 C 146.65625 62.574219 139.273438 69.421875 130.210938 74.679688 C 113.691406 84.257812 96.242188 85.863281 88.730469 79.078125 C 86.550781 69.199219 96.59375 54.855469 113.113281 45.277344 Z M 113.113281 45.277344 " fill-opacity="1" fill-rule="nonzero"/><path fill="#000000" d="M 50.957031 102.644531 C 50.847656 102.40625 50.464844 101.738281 49.296875 100.621094 C 48.265625 99.632812 46.972656 98.625 45.5625 97.613281 L 27.898438 107.863281 C 25.269531 109.386719 24.378906 112.746094 25.902344 115.371094 L 26.132812 115.765625 C 27.65625 118.390625 31.023438 119.28125 33.652344 117.757812 L 52.148438 107.027344 C 51.230469 105.746094 50.796875 104.210938 50.957031 102.644531 Z M 50.957031 102.644531 " fill-opacity="1" fill-rule="nonzero"/><path fill="#000000" d="M 42.164062 93.542969 C 45.128906 95.519531 48.191406 97.5625 50.300781 99.578125 C 52.136719 101.339844 52.453125 102.347656 52.417969 102.585938 C 52.027344 105.332031 53.9375 107.875 56.6875 108.265625 C 56.929688 108.300781 57.167969 108.316406 57.402344 108.316406 C 59.863281 108.316406 62.015625 106.507812 62.375 104 C 63.550781 95.734375 55.15625 90.132812 47.75 85.191406 C 45.554688 83.726562 42.386719 81.613281 41.128906 80.320312 C 43.863281 71.523438 46.746094 66.375 49.144531 63.339844 L 50.53125 63.921875 C 49.15625 65.597656 47.546875 68.21875 45.878906 71.867188 L 44.054688 80.878906 C 45.449219 81.921875 47.207031 83.09375 48.53125 83.976562 C 51.0625 85.664062 53.671875 87.441406 56.035156 89.363281 L 70.628906 80.898438 C 71.753906 80.246094 73.035156 79.902344 74.328125 79.902344 C 75.128906 79.902344 75.925781 80.035156 76.6875 80.289062 L 79.144531 78.863281 L 80.253906 73.394531 C 79.398438 68.207031 80.839844 62.246094 84.585938 56.058594 C 85.152344 55.125 85.90625 54.226562 86.558594 53.304688 L 78.546875 53.707031 L 55.464844 49.042969 C 55.347656 49.019531 55.242188 49.054688 55.125 49.042969 C 55.089844 49.039062 55.058594 49.015625 55.019531 49.011719 C 54.703125 48.988281 54.210938 48.980469 53.582031 49.039062 C 53.558594 49.046875 53.535156 49.046875 53.507812 49.050781 C 50.707031 49.339844 45.234375 51.097656 39.660156 59.359375 C 36.714844 63.726562 33.742188 69.878906 31.128906 78.648438 C 29.257812 84.929688 35.527344 89.113281 42.164062 93.542969 Z M 42.164062 93.542969 " fill-opacity="1" fill-rule="nonzero"/><path fill="#000000" d="M 81.761719 32.449219 C 79.730469 32.628906 78.234375 34.417969 78.414062 36.445312 C 78.59375 38.476562 80.386719 39.972656 82.417969 39.792969 C 84.449219 39.613281 85.949219 37.820312 85.769531 35.792969 C 85.585938 33.765625 83.792969 32.265625 81.761719 32.449219 Z M 81.761719 32.449219 " fill-opacity="1" fill-rule="nonzero"/><path fill="#000000" d="M 70.027344 33.488281 C 67.996094 33.671875 66.496094 35.460938 66.675781 37.488281 C 66.855469 39.519531 68.648438 41.015625 70.679688 40.835938 C 72.710938 40.65625 74.210938 38.863281 74.03125 36.835938 C 73.851562 34.808594 72.058594 33.308594 70.027344 33.488281 Z M 70.027344 33.488281 " fill-opacity="1" fill-rule="nonzero"/><path fill="#000000" d="M 128.640625 69.464844 C 114.683594 78.441406 99.355469 79.710938 93.546875 72.601562 C 93.710938 72.933594 93.890625 73.257812 94.09375 73.574219 C 99.316406 81.675781 115.324219 80.671875 129.847656 71.335938 C 144.371094 61.996094 151.910156 47.859375 146.6875 39.757812 C 146.542969 39.53125 146.375 39.324219 146.214844 39.113281 C 146.148438 39.03125 146.09375 38.9375 146.023438 38.855469 C 146.0625 38.929688 146.0625 39.015625 146.09375 39.089844 C 149.9375 47.328125 142.480469 60.566406 128.640625 69.464844 Z M 128.640625 69.464844 " fill-opacity="1" fill-rule="nonzero"/></svg>